<svg width="294" height="293" viewBox="0 0 294 293" fill="none" xmlns="http://www.w3.org/2000/svg">
<rect x="0.903229" y="292.903" width="292.903" height="292.903" rx="146.452" transform="rotate(-90 0.903229 292.903)" fill="white"/>
<path d="M54.8403 131.982C54.8797 132.025 54.9184 132.069 54.9564 132.114C54.9696 132.129 54.9827 132.141 54.9964 132.155C54.9375 132.091 54.9244 132.074 54.8403 131.982ZM55.195 131.551C55.1801 132.078 55.3437 132.46 55.3855 132.575C64.5467 143.03 74.5043 147.46 85.1294 157.374C95.7043 167.243 105.841 182.367 114.434 212.681L138.536 230.465C139.178 230.939 139.702 231.556 140.065 232.267C140.428 232.978 140.621 233.764 140.628 234.563L140.885 263.596L136.112 272L204.615 273.5L199.794 265.146L199.794 232.377C199.794 231.619 199.962 230.871 200.284 230.185C200.607 229.499 201.077 228.893 201.661 228.41C211.015 220.672 219.991 216.954 224.452 206.702L259.851 91.9688C259.543 84.8304 258.698 79.1296 256.665 75.5931C254.935 72.5805 252.393 70.5062 247.178 69.3277C245.86 72.4495 241.489 82.7886 235.821 96.3211C232.587 104.041 229.36 111.784 226.957 117.623C225.756 120.542 224.759 122.99 224.081 124.7C223.742 125.553 223.48 126.228 223.328 126.643C223.284 126.762 223.276 126.788 223.253 126.853C223.266 126.943 223.313 127.024 222.866 127.938C222.588 128.507 216.81 130.622 216.809 130.622C216.809 130.622 213.361 127.395 213.243 126.921C212.879 125.468 213.1 125.216 213.14 124.928C213.156 124.814 213.168 124.784 213.182 124.706C213.191 124.632 213.203 124.538 213.224 124.342C213.278 123.833 213.359 123.011 213.458 121.949C213.656 119.825 213.931 116.726 214.257 112.985C214.91 105.501 215.764 95.4333 216.61 85.3132C217.455 75.1932 218.293 65.0188 218.915 57.3129C219.226 53.4605 219.483 50.2238 219.659 47.9274C219.748 46.7799 219.816 45.8645 219.86 45.2375C219.878 44.9829 219.889 44.8142 219.898 44.6654C219.56 40.1152 218.221 37.7456 216.824 36.439C215.405 35.1146 213.641 34.566 211.402 34.6799C206.997 34.9041 201.849 38.6014 200.706 42.2095L191.33 113.746C191.165 115.002 190.542 116.153 189.581 116.979C188.62 117.805 187.389 118.247 186.122 118.222C184.856 118.197 183.643 117.705 182.716 116.842C181.789 115.978 181.213 114.803 181.098 113.542C181.098 113.542 179.316 93.8623 177.465 73.9277C176.538 63.9593 175.594 53.9262 174.848 46.2678C174.474 42.4378 174.15 39.1998 173.903 36.8743C173.78 35.713 173.675 34.7748 173.598 34.1295C173.562 33.8343 173.486 33.4762 173.443 33.2623C171.673 27.0232 169.341 23.9969 167.692 22.8711C166.007 21.7212 164.781 21.7309 162.747 22.5753C158.685 24.2606 153.717 31.3195 153.409 35.8875L151.314 116.184C151.281 117.449 150.784 118.656 149.917 119.578C149.05 120.499 147.875 121.069 146.615 121.179C145.355 121.289 144.098 120.931 143.085 120.174C142.072 119.417 141.373 118.313 141.121 117.074C141.121 117.074 137.577 99.6174 133.946 81.6599C132.131 72.6812 130.293 63.5777 128.866 56.4657C127.439 49.3525 126.473 44.5379 126.225 43.1077C125.285 37.6787 123.207 35.1787 120.983 33.8727C118.758 32.5672 115.903 32.3538 112.873 33.3029C107.572 34.963 102.682 39.8589 102.538 46.559C102.517 47.5155 102.594 48.5098 102.779 49.5361C102.785 49.5723 102.791 49.6085 102.796 49.6448L116.335 134.858C122.273 139.154 125.429 143.153 129.479 148.561C162.132 149.718 178.416 155.682 187.017 164.196C195.848 172.939 195.269 183.875 196.118 187.27L186.13 189.769C184.393 182.828 185.52 177.202 179.774 171.514C174.028 165.826 159.959 159.623 126.683 158.735C125.907 158.714 125.145 158.518 124.455 158.161C123.765 157.803 123.164 157.295 122.699 156.672C117.381 149.564 115.675 146.826 109.034 142.329L64.1663 122.005C59.5931 122.613 57.4804 124.872 56.2184 127.519C55.5365 128.95 55.223 130.492 55.1944 131.548L55.195 131.551Z" fill="black"/>
</svg>
