<svg width="294" height="293" viewBox="0 0 294 293" fill="none" xmlns="http://www.w3.org/2000/svg">
<rect x="0.903229" y="292.903" width="292.903" height="292.903" rx="146.452" transform="rotate(-90 0.903229 292.903)" fill="white"/>
<path d="M121.5 100.64H173.5V48.64H121.5V100.64ZM72.42 162V148.314H64.0919V141.561H72.3438V128.307H83.668V162H72.42ZM51.0919 162V128.307H62.3145V162H51.0919ZM106.215 162V155.271H110.379V128.307H121.602V155.271L114.873 162H106.215ZM95.8047 162L89.0508 155.271V128.307H100.299V155.271H104.438V162H95.8047ZM146.967 162L126.984 128.307H138.918L147.957 143.287L155.066 131.1V148.061L146.967 162ZM156.717 162V128.307H167.94V162H156.717ZM126.959 162V131.43L137.445 149.025V162H126.959ZM197.215 162L195.793 158.318H184.773L187.109 151.641H193.203L184.19 128.307H195.133L208.565 162H197.215ZM170.936 162L182.971 129.83L187.947 143.211L181.777 162H170.936ZM231.975 162L211.561 128.307H223.418L243.908 162H231.975ZM243.908 158.801L234.133 142.703V128.307H243.908V158.801ZM211.561 162V131.506L221.336 147.527V162H211.561ZM94.4337 227L84.3536 193.307H95.5255L100.477 211.816L103.854 197.674L108.246 213.67L104.615 227H94.4337ZM113.578 227L104.336 193.307H115.66L124.293 227H113.578ZM125.486 225.248L120.916 207.297L124.395 193.307H134.627L125.486 225.248ZM153.949 227V220.145H158.24V200.137H153.949V193.307H162.658L169.463 200.035V220.271L162.658 227H153.949ZM143.539 227L136.709 220.271V200.035L143.539 193.307H152.172V200.137H147.957V220.145H152.172V227H143.539ZM195.082 227L174.668 193.307H186.525L207.016 227H195.082ZM207.016 223.801L197.24 207.703V193.307H207.016V223.801ZM174.668 227V196.506L184.443 212.527V227H174.668Z" fill="#FF1A09"/>
</svg>
