<svg width="294" height="293" viewBox="0 0 294 293" fill="none" xmlns="http://www.w3.org/2000/svg">
<rect x="0.903229" y="292.903" width="292.903" height="292.903" rx="146.452" transform="rotate(-90 0.903229 292.903)" fill="white"/>
<path d="M121.5 100.64H173.5V48.6401H121.5V100.64ZM72.4197 162V148.315H64.0916V141.561H72.3436V128.307H83.6678V162H72.4197ZM51.0916 162V128.307H62.3143V162H51.0916ZM106.215 162V155.272H110.379V128.307H121.601V155.272L114.873 162H106.215ZM95.8045 162L89.0506 155.272V128.307H100.299V155.272H104.437V162H95.8045ZM146.967 162L126.984 128.307H138.918L147.957 143.287L155.066 131.1V148.061L146.967 162ZM156.717 162V128.307H167.939V162H156.717ZM126.959 162V131.43L137.445 149.026V162H126.959ZM197.215 162L195.793 158.318H184.773L187.109 151.641H193.203L184.189 128.307H195.133L208.564 162H197.215ZM170.935 162L182.971 129.83L187.947 143.211L181.777 162H170.935ZM231.974 162L211.56 128.307H223.418L243.908 162H231.974ZM243.908 158.801L234.133 142.703V128.307H243.908V158.801ZM211.56 162V131.506L221.336 147.527V162H211.56ZM81.1287 227V193.307H92.3514V227H81.1287ZM94.1287 227V220.272H99.6893V216.006H109.871V227H94.1287ZM130.691 227V220.145H134.982V200.137H130.691V193.307H139.4L146.205 200.035V220.272L139.4 227H130.691ZM120.281 227L113.451 220.272V200.035L120.281 193.307H128.914V200.137H124.699V220.145H128.914V227H120.281ZM172.433 227V214.381H157.859L151.105 207.627V200.035L157.859 193.307H161.668V205.266H177.156L183.681 212.02V220.272L176.953 227H172.433ZM172.433 202.752V199.375H163.445V193.307H176.928L182.767 199.172V202.752H172.433ZM156.767 227L151.105 220.272V216.895H162.328V220.906H170.656V227H156.767ZM186.271 200.645V193.307H215.521V200.645H186.271ZM195.056 227V202.397H206.736V227H195.056Z" fill="#097D26"/>
</svg>
