<svg width="294" height="293" viewBox="0 0 294 293" fill="none" xmlns="http://www.w3.org/2000/svg">
<rect x="0.903229" y="292.903" width="292.903" height="292.903" rx="146.452" transform="rotate(-90 0.903229 292.903)" fill="white"/>
<path d="M102.795 135.645V128.307H132.045V135.645H102.795ZM111.58 162V137.396H123.26V162H111.58ZM136.133 162V154.814H139.51V135.467H136.133V128.307H154.109V135.467H150.732V154.814H154.109V162H136.133ZM159.543 162V128.307H170.765V141.662H181.506V148.162H170.765V162H159.543ZM179.525 138.057V134.832H172.543V128.307H190.088V138.057H179.525ZM172.543 162V155.271H178.865V151.895H190.088V162H172.543Z" fill="black"/>
</svg>
