<svg width="293" height="293" viewBox="0 0 293 293" fill="none" xmlns="http://www.w3.org/2000/svg">
<rect x="1.52588e-05" y="292.903" width="292.903" height="292.903" rx="146.452" transform="rotate(-90 1.52588e-05 292.903)" fill="white"/>
<path d="M64.7248 126.269C64.6121 138.342 67.4593 152.873 73.6137 169.853L129.46 204.927C130.194 205.388 130.799 206.026 131.221 206.783C131.642 207.54 131.866 208.391 131.871 209.258L132.221 269.698L199.944 269.538L200.369 215.485C200.378 214.391 200.735 213.328 201.388 212.451C202.042 211.573 202.958 210.927 204.004 210.605C218.795 206.053 227.2 195.369 232.407 182.518C236.726 171.86 238.535 159.881 239.244 149.867C233.713 150.396 227.318 150.367 221.217 148.901C216.832 147.845 212.514 146 209.072 142.698C206.29 140.029 204.253 136.368 203.409 132.076C198.403 133.459 193.361 133.163 188.87 131.872C182.192 129.951 176.219 126.455 170.648 123.8C170.643 123.799 170.638 123.799 170.633 123.799C165.548 123.281 159.113 123.575 152.942 122.646C149.857 122.181 146.761 121.402 143.902 119.704C142.066 118.613 140.368 117.063 139.055 115.153L122.16 121.88C138.919 126.316 150.382 135.479 157.75 144.915C162.737 151.303 165.95 157.757 168.043 162.933C170.137 168.108 171.337 172.595 171.45 172.908L161.763 176.4C160.977 174.221 160.331 171.328 158.496 166.795C156.663 162.26 153.867 156.675 149.635 151.253C141.168 140.409 127.288 130.038 102.107 129.423C100.92 129.394 99.78 128.956 98.8791 128.184C97.9782 127.411 97.3718 126.351 97.1625 125.183C96.9532 124.015 97.1539 122.811 97.7306 121.773C98.3074 120.736 99.2247 119.93 100.327 119.491L137.896 104.532C141.491 96.876 141.62 91.4962 140.166 86.6456C138.84 82.2246 135.841 77.9569 132.436 73.481C117.16 75.3116 101.678 79.7566 86.0289 85.5289C74.4558 92.9047 67.7682 102.838 65.5085 116.707C65.0205 119.702 64.7568 122.891 64.7248 126.271L64.7248 126.269ZM84.339 52.7998L87.4442 74.0616C101.2 69.2115 115.078 65.3174 129.11 63.4324C131.522 48.932 128.617 42.6557 125.85 32.1272C114.097 28.9351 103.945 27.6914 97.4092 29.9173C93.8824 31.1187 91.2331 33.0654 88.9802 36.6392C86.7812 40.1272 85.073 45.3679 84.3384 52.8004L84.339 52.7998ZM136.856 33.5757C139.26 42.2684 141.612 50.9057 139.234 65.3008C143.33 70.5582 147.813 76.2915 150.029 83.6874C152.176 90.8469 151.768 99.3714 147.287 108.966C147.711 109.814 148.253 110.309 149.162 110.85C150.311 111.533 152.146 112.112 154.476 112.463C158.006 112.995 162.556 113.065 167.215 113.302C173.815 89.1204 177.871 65.0154 178.53 40.9778C173.793 34.7628 168.394 30.3258 162.059 28.6267C155.499 26.8687 147.465 27.7017 136.856 33.5752L136.856 33.5757ZM177.357 115.577C182.618 118.134 187.437 120.744 191.716 121.975C197.154 123.539 201.112 123.512 206.418 119.034C217.505 101.51 221.06 81.4442 223.846 60.4319C218.923 53.0063 213.981 46.5384 208.896 43.6002C203.65 40.5682 198.225 39.9904 188.682 45.7227C187.661 69.0691 183.666 92.3572 177.357 115.577L177.357 115.577ZM213.043 126.986C213.188 127.428 213.273 127.887 213.295 128.351C213.484 131.763 214.527 133.66 216.201 135.266C217.874 136.871 220.44 138.122 223.627 138.888C229.117 140.209 236.089 139.924 241.47 139.17C249.584 122.389 255.937 105.363 256.578 85.9305C254.257 74.8654 250.723 70.9461 246.447 68.6612C243.127 66.8877 238.716 66.2224 233.603 65.3351C230.792 85.7754 226.799 106.54 214.662 125.317C214.408 125.71 214.102 126.067 213.751 126.377C213.517 126.585 213.28 126.786 213.043 126.983L213.043 126.986Z" fill="black"/>
</svg>
