<svg width="294" height="293" viewBox="0 0 294 293" fill="none" xmlns="http://www.w3.org/2000/svg">
<rect x="0.806458" y="292.903" width="292.903" height="292.903" rx="146.452" transform="rotate(-90 0.806458 292.903)" fill="white"/>
<path d="M92.4795 175.684C92.5539 179.1 93.1305 182.48 94.0996 185.839C98.559 201.294 112.807 216.71 128.693 229.297C129.282 229.764 129.762 230.354 130.099 231.026C130.435 231.699 130.621 232.436 130.642 233.188L131.769 272.806L126.653 272.95L126.654 272.961L192.363 273.447L192.417 230.877C192.419 229.572 192.916 228.316 193.808 227.364C194.701 226.411 195.921 225.833 197.224 225.746C196.59 225.789 199.42 224.751 202.157 222.214C204.894 219.677 208.006 216.07 210.704 212.336C212.775 209.473 214.611 206.51 215.918 203.961C214.991 203.941 214.074 203.855 213.186 203.713C208.82 203.013 204.574 201.126 200.735 198.623C196.894 196.122 193.473 193.018 191.103 189.326C189.624 187.023 188.507 184.241 188.382 181.355C179.524 177.159 168.442 170.731 164.614 156.861C164.385 156.034 164.327 155.442 164.339 154.955C164.351 154.47 164.434 154.092 164.491 153.695C164.525 153.461 164.573 153.235 164.617 153.006C157.604 160.409 149.606 165.501 141.255 169.308C156.796 177.247 166.297 192.637 173.074 205.377L163.981 210.211C155.618 194.488 144.647 177.71 125.074 174.75C123.923 174.576 122.865 174.016 122.073 173.163C121.281 172.31 120.801 171.213 120.712 170.052C120.624 168.892 120.931 167.735 121.584 166.771C122.237 165.807 123.198 165.094 124.309 164.746C138.049 160.454 150.253 154.635 160.005 142.647C162.735 137.684 160.984 128.994 151.274 125.553C138.175 129.038 128.57 130.836 116.011 136.98C98.3736 150.811 92.2158 163.48 92.4789 175.683L92.4795 175.684ZM103.811 48.0018C103.839 50.5418 104.102 53.4033 104.669 56.5795L119.209 124.27C127.46 120.957 134.818 119.141 142.77 117.125C141.996 113.439 139.338 100.794 136.183 85.9425C134.358 77.3539 132.507 68.6898 131.059 62.0297C130.334 58.7002 129.711 55.8684 129.246 53.8124C129.013 52.7849 128.82 51.9485 128.678 51.3599C128.572 50.9222 128.426 50.456 128.44 50.4743C125.795 43.1414 122.265 38.1735 118.96 35.3703C115.625 32.5397 112.77 31.9493 110.741 32.3715C108.711 32.7937 106.78 34.1804 105.293 38.0305C104.364 40.4332 103.763 43.7684 103.811 48.0006L103.811 48.0018ZM153.562 115.392C163.9 118.603 170.041 126.735 171.232 135.129C171.77 133.926 172.323 132.716 172.888 131.514C175.214 126.559 177.682 121.771 179.959 118.085C180.518 117.179 181.057 116.345 181.604 115.571C185.096 88.6821 186.21 56.945 184.563 36.9624C184.211 32.6936 182.84 30.149 181.38 28.7319C179.921 27.3149 178.31 26.788 176.266 26.9871C172.177 27.3836 166.119 31.5832 163.356 41.8971C160.324 53.2105 157.703 69.9964 155.959 85.133C154.525 97.5871 153.704 109.16 153.562 115.392ZM174.776 154.757C177.484 163.593 184.208 167.875 191.595 171.435L208.603 138.34C209.222 136.908 209.114 136.051 208.172 134.341C207.219 132.613 205.169 130.449 202.591 128.49C198.416 125.316 193.417 122.959 190.064 121.585C189.627 122.181 189.285 122.58 188.719 123.495C186.803 126.598 184.423 131.173 182.208 135.89C179.992 140.608 177.915 145.508 176.497 149.329C175.789 151.239 175.244 152.894 174.944 154.011C174.847 154.374 174.82 154.541 174.776 154.756L174.776 154.757ZM198.644 180.823C198.63 181.005 198.643 181.224 198.703 181.491C198.823 182.035 199.131 182.767 199.77 183.762C201.048 185.753 203.521 188.148 206.358 189.996C209.195 191.845 212.408 193.16 214.816 193.545C217.225 193.931 218.253 193.492 218.689 193.037C218.78 192.942 220.344 190.643 221.75 187.703C223.155 184.764 224.708 181.01 226.126 177.066C228.845 169.521 230.955 161.048 231.179 156.795C229.494 151.073 227.307 148.505 224.894 147.147C222.879 146.015 220.209 145.587 216.894 145.722L198.753 180.38C198.702 180.496 198.66 180.64 198.644 180.822L198.644 180.823Z" fill="black"/>
</svg>
